<?xml version="1.0" ?><!DOCTYPE svg  PUBLIC '-//W3C//DTD SVG 1.1//EN'  'http://www.w3.org/Graphics/SVG/1.1/DTD/svg11.dtd'><svg enable-background="new 0 0 32 32" height="32px" version="1.1" viewBox="0 0 32 32" width="32px" xml:space="preserve" xmlns="http://www.w3.org/2000/svg" xmlns:xlink="http://www.w3.org/1999/xlink"><g id="Guides"/><g id="Mail"/><g id="Cloud"/><g id="Home"/><g id="Back"/><g id="Next"/><g id="Reload"/><g id="Buble"/><g id="Accept"/><g id="Reject"/><g id="User"/><g id="Download"/><g id="Upload"/><g id="Camera"/><g id="Notification"/><g id="About"><path d="M27,9.3218C27,6.9351,25.0654,5,22.6787,5H9.3213C6.9346,5,5,6.9351,5,9.3218v13.3564C5,25.0649,6.9346,27,9.3213,27   h13.3574C25.0654,27,27,25.0649,27,22.6782V9.3218z M25,22.6782C25,23.9604,23.9609,25,22.6787,25H9.3213   C8.0391,25,7,23.9604,7,22.6782V9.3218C7,8.0396,8.0391,7,9.3213,7h13.3574C23.9609,7,25,8.0396,25,9.3218V22.6782z M19.0625,22   c0,0.5522-0.4473,1-1,1h-4c-0.5527,0-1-0.4478-1-1s0.4473-1,1-1H15v-6h-0.9375c-0.5527,0-1-0.4478-1-1s0.4473-1,1-1H17v8h1.0625   C18.6152,21,19.0625,21.4478,19.0625,22z M14.5,10.5625c0-0.8286,0.6719-1.5,1.5-1.5s1.5,0.6714,1.5,1.5s-0.6719,1.5-1.5,1.5   S14.5,11.3911,14.5,10.5625z"/></g><g id="Search"/><g id="Cart"/><g id="Sound"/><g id="List"/><g id="Settings"/></svg>