<svg width="16" height="16" viewBox="0 0 16 16" fill="none" xmlns="http://www.w3.org/2000/svg">
<path fill-rule="evenodd" clip-rule="evenodd" d="M16 8C16 3.58172 12.4183 0 8 0C3.58172 0 0 3.58172 0 8C0 12.4183 3.58172 16 8 16C12.4183 16 16 12.4183 16 8ZM4.56347 4.56354C4.212 4.91501 4.212 5.48486 4.56347 5.83633L6.72713 7.99995L4.56348 10.1636C4.212 10.515 4.212 11.0849 4.56347 11.4364C4.91494 11.7878 5.48479 11.7878 5.83626 11.4364L7.99993 9.27274L10.1636 11.4364C10.5151 11.7878 11.0849 11.7878 11.4364 11.4364C11.7879 11.0849 11.7879 10.515 11.4364 10.1636L9.27273 7.99995L11.4364 5.83633C11.7879 5.48486 11.7879 4.91501 11.4364 4.56354C11.0849 4.21206 10.5151 4.21206 10.1636 4.56353L7.99993 6.72717L5.83626 4.56353C5.48478 4.21206 4.91493 4.21206 4.56347 4.56354Z" fill="#99A2AD"/>
</svg>
