<svg width="52" height="52" viewBox="0 0 52 52" fill="none" xmlns="http://www.w3.org/2000/svg">
<path d="M46.9091 47.5946H14.0978C11.4802 47.5946 9.35059 45.465 9.35059 42.8474V20.5304C9.35059 17.9128 11.4802 15.7832 14.0978 15.7832H46.9086C49.5262 15.7832 51.6558 17.9128 51.6558 20.5304V42.8468C51.6563 45.4644 49.5267 47.5946 46.9091 47.5946ZM14.0978 18.0663C12.7393 18.0663 11.6337 19.1719 11.6337 20.5304V42.8468C11.6337 44.2058 12.7393 45.3109 14.0978 45.3109H46.9086C48.2676 45.3109 49.3726 44.2053 49.3726 42.8468V20.5304C49.3726 19.1719 48.267 18.0663 46.9086 18.0663H14.0978Z" fill="black"/>
<path d="M40.7409 13.144L40.0753 7.26839C39.871 5.46244 38.2409 4.16449 36.4355 4.36883L3.20687 8.13256C1.40092 8.3369 0.102962 9.96705 0.307302 11.7724L2.88952 34.5729C3.09386 36.3788 4.72401 37.6768 6.52939 37.4724L6.71147 37.4935V19.0059C6.71147 15.7685 9.33592 13.144 12.5734 13.144H40.7409Z" fill="black"/>
<path d="M50.5154 25.8945L29.3713 35.7422C28.3879 36.2 27.2195 35.9357 26.5294 35.099L24.9118 33.1377C24.2109 32.2879 23.0191 32.0299 22.0294 32.5139L10.4922 38.1543V42.8467C10.4922 44.8382 12.1064 46.4524 14.0978 46.4524H46.9086C48.9001 46.4524 50.5142 44.8382 50.5142 42.8467V25.8945H50.5154Z" fill="black"/>
<path d="M29.9213 30.0925C32.1279 30.0925 33.9167 28.3037 33.9167 26.097C33.9167 23.8904 32.1279 22.1016 29.9213 22.1016C27.7146 22.1016 25.9258 23.8904 25.9258 26.097C25.9258 28.3037 27.7146 30.0925 29.9213 30.0925Z" fill="black"/>
</svg>
