<svg width="16" height="16" viewBox="0 0 16 16" fill="none" xmlns="http://www.w3.org/2000/svg">
<path d="M12.261 9.64937C12.1913 9.64937 12.1208 9.62864 12.0596 9.58561C11.9008 9.47392 11.8625 9.25491 11.974 9.09632L13.751 6.5675L11.974 4.03867C11.8625 3.87991 11.9008 3.6609 12.0596 3.54938C12.2183 3.43751 12.4373 3.47615 12.5488 3.63474L14.4677 6.36553C14.5527 6.48671 14.5527 6.64828 14.4677 6.76947L12.5488 9.50008C12.4805 9.59738 12.3716 9.64937 12.261 9.64937Z" fill="black"/>
<path d="M10.2203 5.3728C10.4142 5.3728 10.5716 5.21544 10.5716 5.02155V0.439141C10.5716 0.245251 10.4142 0.0878906 10.2203 0.0878906H1.80193C1.79965 0.0878906 1.79772 0.0884175 1.79544 0.0885931C1.78894 0.0885931 1.78244 0.0899981 1.77594 0.090525C1.75451 0.0921056 1.73379 0.0952669 1.71377 0.100536C1.70569 0.102467 1.69814 0.105102 1.69041 0.107736C1.67057 0.11441 1.6516 0.122664 1.63351 0.132675C1.62912 0.135134 1.6242 0.136012 1.61999 0.138646C1.61788 0.139876 1.61647 0.141808 1.61454 0.143037C1.59171 0.157614 1.57028 0.174122 1.55132 0.193441C1.54798 0.196778 1.54552 0.200817 1.54236 0.204154C1.52743 0.220839 1.51408 0.238752 1.50232 0.258071C1.4981 0.265096 1.49441 0.272297 1.49073 0.279497C1.48159 0.297236 1.47422 0.315676 1.46807 0.334995C1.46579 0.342371 1.46315 0.349396 1.4614 0.356948C1.4549 0.383467 1.45068 0.410689 1.45068 0.439141V12.6955C1.45068 12.7253 1.4556 12.754 1.46263 12.7815C1.46456 12.7891 1.46702 12.7961 1.46948 12.8033C1.4765 12.8249 1.48546 12.8453 1.49617 12.8648C1.49951 12.8706 1.50214 12.8767 1.50565 12.8823C1.52076 12.9061 1.53814 12.928 1.55834 12.9475C1.56221 12.9512 1.5666 12.954 1.57064 12.9577C1.58855 12.9735 1.60822 12.9874 1.62912 12.9993C1.63281 13.0014 1.63562 13.0046 1.6393 13.0067L7.08649 15.8541C7.13742 15.881 7.19327 15.8941 7.24912 15.8941C7.31217 15.8941 7.37522 15.8771 7.43107 15.8434C7.53609 15.7798 7.60037 15.6657 7.60037 15.5429V13.0467H10.2203C10.4142 13.0467 10.5716 12.8894 10.5716 12.6955V7.99102C10.5716 7.79713 10.4142 7.63977 10.2203 7.63977C10.0265 7.63977 9.86909 7.79713 9.86909 7.99102V12.3442H7.60037V3.28655C7.60037 3.15571 7.52766 3.03576 7.41175 2.97534L3.23205 0.790391H9.86909V5.02155C9.86909 5.21544 10.0265 5.3728 10.2203 5.3728Z" fill="black"/>
<path d="M14.1805 6.91832H8.4367C8.24281 6.91832 8.08545 6.76096 8.08545 6.56707C8.08545 6.37318 8.24281 6.21582 8.4367 6.21582H14.1805C14.3744 6.21582 14.5318 6.37318 14.5318 6.56707C14.5318 6.76096 14.3746 6.91832 14.1805 6.91832Z" fill="black"/>
</svg>
