<svg width="29" height="29" viewBox="0 0 29 29" fill="none" xmlns="http://www.w3.org/2000/svg">
<g clip-path="url(#clip0_676_5368)">
<path d="M14.4998 0.111328C13.234 0.111328 12.1975 1.14778 12.1975 2.41355C12.1975 2.71032 12.256 2.9981 12.3594 3.2589C9.12191 4.09975 7.01753 6.91233 7.01753 10.4713C7.01753 14.9791 5.91138 17.0318 4.8592 18.1874C4.3331 18.7652 3.81375 19.1159 3.36635 19.4464C3.14152 19.6105 2.93693 19.7746 2.75482 19.986C2.57271 20.1973 2.41309 20.4986 2.41309 20.8313C2.41309 21.6227 2.89871 22.2949 3.58218 22.7379C4.26566 23.1808 5.16271 23.4663 6.24413 23.6911C7.64704 23.9811 9.37821 24.134 11.2802 24.2127C11.1363 24.5949 11.0464 25.0064 11.0464 25.4358C11.0464 27.3356 12.6 28.8891 14.4998 28.8891C16.3995 28.8891 17.9531 27.3356 17.9531 25.4358C17.9531 25.0041 17.8654 24.5927 17.7193 24.2127C19.6213 24.134 21.3525 23.9811 22.7554 23.6911C23.8368 23.4663 24.7339 23.1808 25.4173 22.7379C26.1008 22.2949 26.5864 21.6227 26.5864 20.8313C26.5864 20.4986 26.4268 20.1973 26.2447 19.986C26.0626 19.7746 25.858 19.6105 25.6332 19.4464C25.1858 19.1159 24.6664 18.7652 24.1403 18.1874C23.0881 17.0318 21.982 14.9791 21.982 10.4713C21.982 6.91458 19.8731 4.10424 16.6401 3.2589C16.7435 2.9981 16.802 2.71032 16.802 2.41355C16.802 1.14778 15.7655 0.111328 14.4998 0.111328ZM14.4998 1.26244C15.1428 1.26244 15.6509 1.77055 15.6509 2.41355C15.6509 3.05655 15.1428 3.56466 14.4998 3.56466C13.8567 3.56466 13.3486 3.05655 13.3486 2.41355C13.3486 1.77055 13.8567 1.26244 14.4998 1.26244ZM15.8487 4.24813C18.9176 4.79446 20.8309 7.16638 20.8309 10.4713C20.8309 15.1724 22.0269 17.5871 23.277 18.9608C23.902 19.6465 24.5338 20.0759 24.9497 20.3817C25.1565 20.5346 25.3117 20.6627 25.3814 20.7414C25.451 20.8201 25.4353 20.8133 25.4353 20.8313C25.4353 21.1911 25.2689 21.4541 24.7878 21.7666C24.3067 22.0791 23.5243 22.3691 22.5216 22.576C20.5161 22.9919 17.6608 23.1336 14.4998 23.1336C11.3387 23.1336 8.4834 22.9919 6.47795 22.576C5.47522 22.3691 4.69283 22.0791 4.2117 21.7666C3.73057 21.4541 3.5642 21.1911 3.5642 20.8313C3.5642 20.8133 3.54846 20.8201 3.61816 20.7414C3.68785 20.6627 3.84298 20.5346 4.04982 20.3817C4.46575 20.0759 5.09751 19.6465 5.72253 18.9608C6.97257 17.5871 8.16864 15.1724 8.16864 10.4713C8.16864 7.16863 10.0842 4.8147 13.1508 4.26612C13.533 4.54715 13.9939 4.71577 14.4998 4.71577C15.0101 4.71577 15.4665 4.53366 15.8487 4.24813ZM12.5213 24.2487C13.1665 24.2622 13.823 24.2847 14.4998 24.2847C15.1765 24.2847 15.833 24.2622 16.4782 24.2487C16.6828 24.5949 16.802 25.0041 16.802 25.4358C16.802 26.715 15.779 27.738 14.4998 27.738C13.2205 27.738 12.1975 26.715 12.1975 25.4358C12.1975 24.9996 12.3122 24.5949 12.5213 24.2487Z" fill="black"/>
</g>
<defs>
<clipPath id="clip0_676_5368">
<rect width="28.7778" height="28.7778" fill="white" transform="translate(0.111328 0.111328)"/>
</clipPath>
</defs>
</svg>
