<svg width="29" height="29" viewBox="0 0 29 29" fill="none" xmlns="http://www.w3.org/2000/svg">
<g clip-path="url(#clip0_558_2403)">
<path d="M14.5002 0.111328C13.2345 0.111328 12.198 1.14778 12.198 2.41355C12.198 2.71032 12.2565 2.9981 12.3599 3.2589C9.12239 4.09975 7.01802 6.91233 7.01802 10.4713C7.01802 14.9791 5.91187 17.0318 4.85969 18.1874C4.33359 18.7652 3.81424 19.1159 3.36684 19.4464C3.14201 19.6105 2.93742 19.7746 2.75531 19.986C2.5732 20.1973 2.41357 20.4986 2.41357 20.8313C2.41357 21.6227 2.8992 22.2949 3.58267 22.7379C4.26614 23.1808 5.1632 23.4663 6.24462 23.6911C7.64753 23.9811 9.3787 24.134 11.2807 24.2127C11.1368 24.5949 11.0469 25.0064 11.0469 25.4358C11.0469 27.3356 12.6005 28.8891 14.5002 28.8891C16.4 28.8891 17.9536 27.3356 17.9536 25.4358C17.9536 25.0041 17.8659 24.5927 17.7198 24.2127C19.6218 24.134 21.3529 23.9811 22.7559 23.6911C23.8373 23.4663 24.7343 23.1808 25.4178 22.7379C26.1013 22.2949 26.5869 21.6227 26.5869 20.8313C26.5869 20.4986 26.4273 20.1973 26.2452 19.986C26.0631 19.7746 25.8585 19.6105 25.6336 19.4464C25.1862 19.1159 24.6669 18.7652 24.1408 18.1874C23.0886 17.0318 21.9825 14.9791 21.9825 10.4713C21.9825 6.91458 19.8736 4.10424 16.6406 3.2589C16.744 2.9981 16.8025 2.71032 16.8025 2.41355C16.8025 1.14778 15.766 0.111328 14.5002 0.111328ZM14.5002 1.26244C15.1432 1.26244 15.6514 1.77055 15.6514 2.41355C15.6514 3.05655 15.1432 3.56466 14.5002 3.56466C13.8572 3.56466 13.3491 3.05655 13.3491 2.41355C13.3491 1.77055 13.8572 1.26244 14.5002 1.26244ZM15.8492 4.24813C18.9181 4.79446 20.8314 7.16638 20.8314 10.4713C20.8314 15.1724 22.0274 17.5871 23.2775 18.9608C23.9025 19.6465 24.5342 20.0759 24.9502 20.3817C25.157 20.5346 25.3121 20.6627 25.3818 20.7414C25.4515 20.8201 25.4358 20.8133 25.4358 20.8313C25.4358 21.1911 25.2694 21.4541 24.7883 21.7666C24.3072 22.0791 23.5248 22.3691 22.522 22.576C20.5166 22.9919 17.6613 23.1336 14.5002 23.1336C11.3392 23.1336 8.48389 22.9919 6.47844 22.576C5.47571 22.3691 4.69331 22.0791 4.21219 21.7666C3.73106 21.4541 3.56469 21.1911 3.56469 20.8313C3.56469 20.8133 3.54895 20.8201 3.61864 20.7414C3.68834 20.6627 3.84347 20.5346 4.05031 20.3817C4.46624 20.0759 5.098 19.6465 5.72302 18.9608C6.97305 17.5871 8.16913 15.1724 8.16913 10.4713C8.16913 7.16863 10.0847 4.8147 13.1513 4.26612C13.5335 4.54715 13.9944 4.71577 14.5002 4.71577C15.0106 4.71577 15.467 4.53366 15.8492 4.24813ZM12.5218 24.2487C13.167 24.2622 13.8235 24.2847 14.5002 24.2847C15.177 24.2847 15.8335 24.2622 16.4787 24.2487C16.6833 24.5949 16.8025 25.0041 16.8025 25.4358C16.8025 26.715 15.7795 27.738 14.5002 27.738C13.221 27.738 12.198 26.715 12.198 25.4358C12.198 24.9996 12.3127 24.5949 12.5218 24.2487Z" fill="black"/>
<path d="M26 6C26 8.20914 24.2091 10 22 10C19.7909 10 18 8.20914 18 6C18 3.79086 19.7909 2 22 2C24.2091 2 26 3.79086 26 6Z" fill="#009F2D"/>
</g>
<defs>
<clipPath id="clip0_558_2403">
<rect width="28.7778" height="28.7778" fill="white" transform="translate(0.111328 0.111328)"/>
</clipPath>
</defs>
</svg>
