<svg width="16" height="16" viewBox="0 0 16 16" fill="none" xmlns="http://www.w3.org/2000/svg">
<g clip-path="url(#clip0_367_4973)">
<path d="M15.5947 5.76H13.9965C13.9453 5.58934 13.8894 5.47691 13.8289 5.34378L14.9547 4.21269C15.1212 4.04612 15.1213 3.77344 14.9548 3.60678L12.3933 1.04094C12.3133 0.960813 12.2047 0.915156 12.0914 0.915156C11.9782 0.915156 11.8696 0.959875 11.7895 1.04L10.659 2.16106C10.5249 2.09953 10.4107 2.04238 10.24 1.99022V0.405344C10.24 0.169719 10.0703 0 9.83466 0H6.208C5.97234 0 5.76 0.169719 5.76 0.405344V1.97406C5.632 2.027 5.48594 2.08516 5.34681 2.14831L4.24172 1.03928C4.07516 0.872875 3.80788 0.872937 3.64128 1.03937L1.07672 3.60391C0.910063 3.77047 0.910656 4.04059 1.07722 4.20731L2.18088 5.32203C2.1165 5.46228 2.05753 5.58938 2.0035 5.76006H0.448C0.212344 5.76 0 5.92972 0 6.16534V9.792C0 10.0276 0.212344 10.24 0.448 10.24H2.0035C2.05744 10.368 2.11669 10.5161 2.18091 10.6562L1.07656 11.7552C0.996531 11.8352 0.951563 11.9411 0.951594 12.0544C0.951625 12.1676 0.996656 12.2748 1.07675 12.3548L3.64403 14.9185C3.81059 15.0849 4.0805 15.0846 4.24703 14.9182L5.34659 13.8092C5.48572 13.8723 5.63194 13.9303 5.75994 13.9833V15.552C5.75994 15.7876 5.97228 16 6.20794 16H9.83459C10.0702 16 10.2399 15.7876 10.2399 15.552V13.9671C10.4106 13.9149 10.525 13.8573 10.6591 13.7957L11.7841 14.9268C11.8641 15.0069 11.978 15.0613 12.0913 15.0613C12.0913 15.0613 12.0913 15.0613 12.0914 15.0613C12.2046 15.0613 12.3131 15.007 12.3932 14.9269L14.9562 12.3585C15.0362 12.2785 15.0811 12.1673 15.081 12.0541C15.081 11.9409 15.036 11.8311 14.956 11.7511L13.8292 10.635C13.8895 10.5021 13.9453 10.368 13.9965 10.24H15.5947C15.8303 10.24 16 10.0276 16 9.792V6.16534C16 5.92972 15.8303 5.76 15.5947 5.76ZM15.1467 9.38666H13.6927C13.507 9.38666 13.3425 9.49622 13.2862 9.67328C13.1929 9.96653 13.0743 10.2482 12.9338 10.5209C12.8487 10.6858 12.8801 10.8842 13.0114 11.0155L14.051 12.053L12.0915 14.0129L11.0582 12.9779C10.9265 12.8461 10.7244 12.8148 10.5592 12.9008C10.2852 13.0436 9.98675 13.1638 9.69306 13.2585C9.51681 13.3154 9.38669 13.4793 9.38669 13.6645V15.1467H6.61334V13.6783C6.61334 13.492 6.50306 13.3272 6.32522 13.2713C6.02609 13.1773 5.73856 13.057 5.46009 12.9136C5.29528 12.8288 5.09719 12.8601 4.96597 12.9911L3.94422 14.0128L1.98112 12.0513L2.99931 11.0335C3.13097 10.9019 3.16222 10.7001 3.07628 10.5348C2.93097 10.2556 2.80903 9.97275 2.71369 9.67328C2.65731 9.49625 2.49297 9.38666 2.30719 9.38666H0.853344V6.61331H2.30725C2.49303 6.61331 2.65747 6.48247 2.71381 6.30538C2.80922 6.00566 2.93128 5.70672 3.07669 5.42734C3.16263 5.26228 3.13159 5.05781 3.00003 4.92613L1.98306 3.90716L3.94569 1.94497L4.96884 2.96644C5.1 3.09744 5.30075 3.12862 5.46556 3.04378C5.74434 2.90034 6.02647 2.77994 6.32522 2.68609C6.503 2.63025 6.61334 2.46534 6.61334 2.27897V0.853344H9.38669V2.29281C9.38669 2.47803 9.51681 2.64209 9.69312 2.69891C9.98681 2.79359 10.2799 2.91391 10.5536 3.05653C10.719 3.14269 10.9236 3.11156 11.0553 2.97966L12.0901 1.94491L14.0491 3.90547L13.0108 4.94419C12.8796 5.07544 12.8484 5.27637 12.9334 5.44134C13.0741 5.71425 13.1928 6.012 13.2862 6.30534C13.3425 6.48237 13.507 6.61331 13.6928 6.61331H15.1467V9.38666H15.1467Z" fill="black"/>
<path d="M7.99998 3.5625C5.56498 3.5625 3.58398 5.5435 3.58398 7.9785C3.58398 10.4135 5.56498 12.3945 7.99998 12.3945C10.435 12.3945 12.416 10.4135 12.416 7.9785C12.416 5.5435 10.435 3.5625 7.99998 3.5625ZM7.99998 11.5412C6.03552 11.5412 4.43733 9.94297 4.43733 7.97853C4.43733 6.01409 6.03552 4.41584 7.99998 4.41584C9.96445 4.41584 11.5626 6.01406 11.5626 7.9785C11.5626 9.94294 9.96445 11.5412 7.99998 11.5412Z" fill="black"/>
<path d="M8.00018 5.58887C6.68271 5.58887 5.61084 6.66071 5.61084 7.97821C5.61084 9.29571 6.68271 10.3676 8.00018 10.3676C9.31765 10.3676 10.3895 9.29571 10.3895 7.97821C10.3895 6.66068 9.31765 5.58887 8.00018 5.58887ZM8.00018 9.51418C7.15321 9.51418 6.46418 8.82515 6.46418 7.97818C6.46418 7.13121 7.15321 6.44218 8.00018 6.44218C8.84715 6.44218 9.53618 7.13121 9.53618 7.97818C9.53618 8.82515 8.84715 9.51418 8.00018 9.51418Z" fill="black"/>
</g>
<defs>
<clipPath id="clip0_367_4973">
<rect width="16" height="16" fill="white"/>
</clipPath>
</defs>
</svg>
