<?xml version="1.0" ?><svg style="enable-background:new 0 0 24 24;" version="1.1" viewBox="0 0 24 24" xml:space="preserve" xmlns="http://www.w3.org/2000/svg" xmlns:xlink="http://www.w3.org/1999/xlink"><style type="text/css">
	.st0{opacity:0.2;fill:none;stroke:#000000;stroke-width:5.000000e-02;stroke-miterlimit:10;}
</style><g id="grid_system"/><g id="_icons"><g><path d="M21.8,4.5c-0.3-0.7-0.9-1.3-1.6-1.6c-1.5-0.6-3.2,0.1-3.9,1.5l-4.6,10.3c-0.4,0.9-0.5,2-0.4,2.9l0.4,2.2    c0.1,0.3,0.3,0.6,0.6,0.7c0.1,0.1,0.3,0.1,0.4,0.1c0.2,0,0.4-0.1,0.5-0.2l1.9-1.2c0.9-0.6,1.5-1.3,1.9-2.3l4.6-10.3    C22.1,6,22.1,5.2,21.8,4.5z M15.4,16.3c-0.3,0.6-0.7,1-1.2,1.4l-0.7,0.4l-0.1-0.7c-0.1-0.6,0-1.2,0.2-1.8l3.5-8l1.8,0.7L15.4,16.3    z M20,5.9l-0.2,0.5L18,5.7l0.2-0.5c0.2-0.4,0.5-0.6,0.9-0.6c0.1,0,0.3,0,0.4,0.1C19.7,4.8,19.9,5,20,5.2c0,0,0,0,0,0    C20.1,5.5,20.1,5.7,20,5.9z"/><path d="M3,17h4c0.6,0,1-0.4,1-1s-0.4-1-1-1H3c-0.6,0-1,0.4-1,1S2.4,17,3,17z"/><path d="M9,19H3c-0.6,0-1,0.4-1,1s0.4,1,1,1h6c0.6,0,1-0.4,1-1S9.6,19,9,19z"/></g></g></svg>