<svg width="18" height="12" viewBox="0 0 18 12" fill="none" xmlns="http://www.w3.org/2000/svg">
<path fill-rule="evenodd" clip-rule="evenodd" d="M11.867 6C11.867 7.65685 10.5967 9 9.02963 9C7.4626 9 6.19228 7.65685 6.19228 6C6.19228 4.34315 7.4626 3 9.02963 3C10.5967 3 11.867 4.34315 11.867 6ZM10.4483 6C10.4483 6.82843 9.81314 7.5 9.02963 7.5C8.24611 7.5 7.61095 6.82843 7.61095 6C7.61095 5.17157 8.24611 4.5 9.02963 4.5C9.81314 4.5 10.4483 5.17157 10.4483 6Z" fill="#99A2AD"/>
<path fill-rule="evenodd" clip-rule="evenodd" d="M17.5417 6C17.5417 9.5 12.8128 12 9.02963 12C5.24649 12 0.517578 9.5 0.517578 6C0.517578 2.5 5.24649 0 9.02963 0C12.8128 0 17.5417 2.5 17.5417 6ZM16.123 6C16.123 6.98269 15.4426 8.08377 13.9681 9.03032C12.5341 9.95084 10.6606 10.5 9.02963 10.5C7.39861 10.5 5.52514 9.95084 4.09119 9.03032C2.61669 8.08377 1.93625 6.98269 1.93625 6C1.93625 5.01731 2.61669 3.91623 4.09119 2.96968C5.52514 2.04916 7.39861 1.5 9.02963 1.5C10.6606 1.5 12.5341 2.04916 13.9681 2.96968C15.4426 3.91623 16.123 5.01731 16.123 6Z" fill="#99A2AD"/>
</svg>
